<mxfile host="app.diagrams.net" agent="Mozilla/5.0 (Windows NT 10.0; Win64; x64; rv:139.0) Gecko/20100101 Firefox/139.0" version="27.1.6" pages="2">
  <diagram name="Page-1" id="DYWIcZK1-25Avcm8wTOQ">
    <mxGraphModel dx="1429" dy="856" grid="1" gridSize="10" guides="1" tooltips="1" connect="1" arrows="1" fold="1" page="1" pageScale="1" pageWidth="3300" pageHeight="4681" math="0" shadow="0">
      <root>
        <mxCell id="0" />
        <mxCell id="1" parent="0" />
        <mxCell id="QzDq8rynKPK1qvdBXW3V-3" style="edgeStyle=orthogonalEdgeStyle;rounded=0;orthogonalLoop=1;jettySize=auto;html=1;exitX=1;exitY=0.5;exitDx=0;exitDy=0;entryX=0;entryY=0.5;entryDx=0;entryDy=0;" parent="1" source="QzDq8rynKPK1qvdBXW3V-1" target="QzDq8rynKPK1qvdBXW3V-2" edge="1">
          <mxGeometry relative="1" as="geometry" />
        </mxCell>
        <mxCell id="QzDq8rynKPK1qvdBXW3V-1" value="data&#xa;Raw Microarray&#xa;Gene Expression&#xa;Datasets" style="rectangle;fillColor=#fff2cc;strokeColor=#d6b656;" parent="1" name="data" vertex="1">
          <mxGeometry x="340" y="230" width="100" height="50" as="geometry" />
        </mxCell>
        <mxCell id="QzDq8rynKPK1qvdBXW3V-5" style="edgeStyle=orthogonalEdgeStyle;rounded=0;orthogonalLoop=1;jettySize=auto;html=1;exitX=1;exitY=0.5;exitDx=0;exitDy=0;entryX=0.5;entryY=0;entryDx=0;entryDy=0;" parent="1" source="QzDq8rynKPK1qvdBXW3V-2" target="QzDq8rynKPK1qvdBXW3V-4" edge="1">
          <mxGeometry relative="1" as="geometry" />
        </mxCell>
        <mxCell id="QzDq8rynKPK1qvdBXW3V-2" value="transform" style="rounded=1;whiteSpace=wrap;html=1;arcSize=50;fillColor=#f8cecc;strokeColor=#b85450;" parent="1" name="transform" vertex="1">
          <mxGeometry x="520" y="230" width="100" height="50" as="geometry" />
        </mxCell>
        <mxCell id="QzDq8rynKPK1qvdBXW3V-7" style="edgeStyle=orthogonalEdgeStyle;rounded=0;orthogonalLoop=1;jettySize=auto;html=1;exitX=0.5;exitY=1;exitDx=0;exitDy=0;entryX=0.5;entryY=0;entryDx=0;entryDy=0;" parent="1" source="QzDq8rynKPK1qvdBXW3V-4" target="QzDq8rynKPK1qvdBXW3V-6" edge="1">
          <mxGeometry relative="1" as="geometry" />
        </mxCell>
        <mxCell id="QzDq8rynKPK1qvdBXW3V-4" value="data&#xa;Cleaned and&#xa;Normalized" style="rectangle;fillColor=#fff2cc;strokeColor=#d6b656;" parent="1" name="data" vertex="1">
          <mxGeometry x="650" y="330" width="100" height="50" as="geometry" />
        </mxCell>
        <mxCell id="QzDq8rynKPK1qvdBXW3V-16" style="edgeStyle=orthogonalEdgeStyle;rounded=0;orthogonalLoop=1;jettySize=auto;html=1;exitX=0.5;exitY=1;exitDx=0;exitDy=0;entryX=0.5;entryY=0;entryDx=0;entryDy=0;" parent="1" source="QzDq8rynKPK1qvdBXW3V-6" target="QzDq8rynKPK1qvdBXW3V-14" edge="1">
          <mxGeometry relative="1" as="geometry" />
        </mxCell>
        <mxCell id="QzDq8rynKPK1qvdBXW3V-6" value="transform" style="rounded=1;whiteSpace=wrap;html=1;arcSize=50;fillColor=#f8cecc;strokeColor=#b85450;" parent="1" name="transform" vertex="1">
          <mxGeometry x="650" y="460" width="100" height="50" as="geometry" />
        </mxCell>
        <mxCell id="QzDq8rynKPK1qvdBXW3V-8" value="actor&#xa;Experts" style="triangle;fillColor=#ffe6cc;strokeColor=#d79b00;" parent="1" name="actor" vertex="1">
          <mxGeometry x="830" y="460" width="100" height="50" as="geometry" />
        </mxCell>
        <mxCell id="QzDq8rynKPK1qvdBXW3V-10" value="&lt;div&gt;error&lt;/div&gt;&lt;div&gt;&amp;lt;--&lt;/div&gt;" style="text;html=1;align=center;verticalAlign=middle;whiteSpace=wrap;rounded=0;dashed=1;fillColor=#f5f5f5;fontColor=#333333;strokeColor=#666666;strokeWidth=2;" parent="1" name="text" vertex="1">
          <mxGeometry x="750" y="470" width="80" height="30" as="geometry" />
        </mxCell>
        <mxCell id="QzDq8rynKPK1qvdBXW3V-19" style="edgeStyle=orthogonalEdgeStyle;rounded=0;orthogonalLoop=1;jettySize=auto;html=1;exitX=0;exitY=0.5;exitDx=0;exitDy=0;entryX=0.5;entryY=0;entryDx=0;entryDy=0;" parent="1" source="QzDq8rynKPK1qvdBXW3V-12" target="QzDq8rynKPK1qvdBXW3V-18" edge="1">
          <mxGeometry relative="1" as="geometry" />
        </mxCell>
        <mxCell id="QzDq8rynKPK1qvdBXW3V-12" value="data&#xa;Labeled Data" style="rectangle;fillColor=#fff2cc;strokeColor=#d6b656;" parent="1" name="data" vertex="1">
          <mxGeometry x="470" y="460" width="100" height="50" as="geometry" />
        </mxCell>
        <mxCell id="QzDq8rynKPK1qvdBXW3V-22" style="edgeStyle=orthogonalEdgeStyle;rounded=0;orthogonalLoop=1;jettySize=auto;html=1;exitX=0.5;exitY=1;exitDx=0;exitDy=0;entryX=0.5;entryY=0;entryDx=0;entryDy=0;" parent="1" source="QzDq8rynKPK1qvdBXW3V-14" target="QzDq8rynKPK1qvdBXW3V-21" edge="1">
          <mxGeometry relative="1" as="geometry" />
        </mxCell>
        <mxCell id="QzDq8rynKPK1qvdBXW3V-14" value="data&#xa;Unlabeled Data" style="rectangle;fillColor=#fff2cc;strokeColor=#d6b656;" parent="1" name="data" vertex="1">
          <mxGeometry x="650" y="590" width="100" height="50" as="geometry" />
        </mxCell>
        <mxCell id="QzDq8rynKPK1qvdBXW3V-17" value="&lt;div&gt;error&lt;/div&gt;&lt;div&gt;&amp;lt;--&lt;/div&gt;" style="text;html=1;align=center;verticalAlign=middle;whiteSpace=wrap;rounded=0;dashed=1;fillColor=#f5f5f5;fontColor=#333333;strokeColor=#666666;strokeWidth=2;" parent="1" name="text" vertex="1">
          <mxGeometry x="570" y="470" width="80" height="30" as="geometry" />
        </mxCell>
        <mxCell id="QzDq8rynKPK1qvdBXW3V-23" style="edgeStyle=orthogonalEdgeStyle;rounded=0;orthogonalLoop=1;jettySize=auto;html=1;exitX=0.5;exitY=1;exitDx=0;exitDy=0;entryX=0;entryY=0.5;entryDx=0;entryDy=0;" parent="1" source="QzDq8rynKPK1qvdBXW3V-18" target="QzDq8rynKPK1qvdBXW3V-20" edge="1">
          <mxGeometry relative="1" as="geometry" />
        </mxCell>
        <mxCell id="QzDq8rynKPK1qvdBXW3V-18" value="generate:train" style="rounded=1;whiteSpace=wrap;html=1;arcSize=50;fillColor=#e1d5e7;strokeColor=#9673a6;" parent="1" name="generate:train" vertex="1">
          <mxGeometry x="340" y="590" width="100" height="50" as="geometry" />
        </mxCell>
        <mxCell id="QzDq8rynKPK1qvdBXW3V-24" style="edgeStyle=orthogonalEdgeStyle;rounded=0;orthogonalLoop=1;jettySize=auto;html=1;exitX=1;exitY=0.5;exitDx=0;exitDy=0;entryX=0;entryY=0.5;entryDx=0;entryDy=0;" parent="1" source="QzDq8rynKPK1qvdBXW3V-20" target="QzDq8rynKPK1qvdBXW3V-21" edge="1">
          <mxGeometry relative="1" as="geometry" />
        </mxCell>
        <mxCell id="QzDq8rynKPK1qvdBXW3V-20" value="model:hybrid&#xa;Rough-Fuzzy&#xa;Classifier" style="shape=hexagon;perimeter=hexagonPerimeter2;fillColor=#b0e3e6;strokeColor=#0e8088;" parent="1" name="model" vertex="1">
          <mxGeometry x="460" y="720" width="120" height="50" as="geometry" />
        </mxCell>
        <mxCell id="QzDq8rynKPK1qvdBXW3V-21" value="infer:deduce" style="rounded=1;whiteSpace=wrap;html=1;arcSize=50;fillColor=#bac8d3;strokeColor=#23445d;" parent="1" name="infer:deduce" vertex="1">
          <mxGeometry x="650" y="720" width="100" height="50" as="geometry" />
        </mxCell>
        <mxCell id="QzDq8rynKPK1qvdBXW3V-30" style="edgeStyle=orthogonalEdgeStyle;rounded=0;orthogonalLoop=1;jettySize=auto;html=1;exitX=0.5;exitY=1;exitDx=0;exitDy=0;entryX=0.5;entryY=0;entryDx=0;entryDy=0;" parent="1" source="QzDq8rynKPK1qvdBXW3V-25" target="QzDq8rynKPK1qvdBXW3V-29" edge="1">
          <mxGeometry relative="1" as="geometry" />
        </mxCell>
        <mxCell id="QzDq8rynKPK1qvdBXW3V-25" value="data&#xa;Most Uncertain&#xa;Data" style="rectangle;fillColor=#fff2cc;strokeColor=#d6b656;" parent="1" name="data" vertex="1">
          <mxGeometry x="650" y="850" width="100" height="50" as="geometry" />
        </mxCell>
        <mxCell id="QzDq8rynKPK1qvdBXW3V-27" value="&lt;div&gt;error&lt;/div&gt;&lt;div&gt;|&lt;/div&gt;&lt;div&gt;|&lt;/div&gt;&lt;div&gt;v&lt;/div&gt;" style="text;html=1;align=center;verticalAlign=middle;whiteSpace=wrap;rounded=0;dashed=1;fillColor=#f5f5f5;fontColor=#333333;strokeColor=#666666;strokeWidth=2;" parent="1" name="text" vertex="1">
          <mxGeometry x="685" y="770" width="30" height="80" as="geometry" />
        </mxCell>
        <mxCell id="QzDq8rynKPK1qvdBXW3V-28" value="actor&#xa;Experts" style="triangle;fillColor=#ffe6cc;strokeColor=#d79b00;" parent="1" name="actor" vertex="1">
          <mxGeometry x="470" y="980" width="100" height="50" as="geometry" />
        </mxCell>
        <mxCell id="QzDq8rynKPK1qvdBXW3V-29" value="infer:deduce" style="rounded=1;whiteSpace=wrap;html=1;arcSize=50;fillColor=#bac8d3;strokeColor=#23445d;" parent="1" name="infer:deduce" vertex="1">
          <mxGeometry x="650" y="980" width="100" height="50" as="geometry" />
        </mxCell>
        <mxCell id="QzDq8rynKPK1qvdBXW3V-32" value="&lt;div&gt;error&lt;/div&gt;&lt;div&gt;--&amp;gt;&lt;/div&gt;" style="text;html=1;align=center;verticalAlign=middle;whiteSpace=wrap;rounded=0;dashed=1;fillColor=#f5f5f5;fontColor=#333333;strokeColor=#666666;strokeWidth=2;" parent="1" name="text" vertex="1">
          <mxGeometry x="570" y="990" width="80" height="30" as="geometry" />
        </mxCell>
        <mxCell id="QzDq8rynKPK1qvdBXW3V-39" style="edgeStyle=orthogonalEdgeStyle;rounded=0;orthogonalLoop=1;jettySize=auto;html=1;exitX=1;exitY=0.5;exitDx=0;exitDy=0;entryX=0;entryY=0.5;entryDx=0;entryDy=0;" parent="1" source="QzDq8rynKPK1qvdBXW3V-33" target="QzDq8rynKPK1qvdBXW3V-38" edge="1">
          <mxGeometry relative="1" as="geometry" />
        </mxCell>
        <mxCell id="QzDq8rynKPK1qvdBXW3V-33" value="data&#xa;Labeled Data" style="rectangle;fillColor=#fff2cc;strokeColor=#d6b656;" parent="1" name="data" vertex="1">
          <mxGeometry x="780" y="1080" width="100" height="50" as="geometry" />
        </mxCell>
        <mxCell id="QzDq8rynKPK1qvdBXW3V-37" value="&lt;div&gt;error&lt;/div&gt;&lt;div&gt;|&lt;/div&gt;&lt;div&gt;&amp;nbsp;&amp;nbsp; -&amp;gt;&lt;/div&gt;" style="text;html=1;align=center;verticalAlign=middle;whiteSpace=wrap;rounded=0;dashed=1;fillColor=#f5f5f5;fontColor=#333333;strokeColor=#666666;strokeWidth=2;" parent="1" name="text" vertex="1">
          <mxGeometry x="700" y="1030" width="80" height="100" as="geometry" />
        </mxCell>
        <mxCell id="QzDq8rynKPK1qvdBXW3V-41" style="edgeStyle=orthogonalEdgeStyle;rounded=0;orthogonalLoop=1;jettySize=auto;html=1;exitX=1;exitY=0.5;exitDx=0;exitDy=0;entryX=0.5;entryY=1;entryDx=0;entryDy=0;" parent="1" source="QzDq8rynKPK1qvdBXW3V-38" target="QzDq8rynKPK1qvdBXW3V-40" edge="1">
          <mxGeometry relative="1" as="geometry" />
        </mxCell>
        <mxCell id="QzDq8rynKPK1qvdBXW3V-38" value="generate:train" style="rounded=1;whiteSpace=wrap;html=1;arcSize=50;fillColor=#e1d5e7;strokeColor=#9673a6;" parent="1" name="generate:train" vertex="1">
          <mxGeometry x="960" y="1080" width="100" height="50" as="geometry" />
        </mxCell>
        <mxCell id="QzDq8rynKPK1qvdBXW3V-43" style="edgeStyle=orthogonalEdgeStyle;rounded=0;orthogonalLoop=1;jettySize=auto;html=1;exitX=0.5;exitY=0;exitDx=0;exitDy=0;entryX=0.5;entryY=1;entryDx=0;entryDy=0;" parent="1" source="QzDq8rynKPK1qvdBXW3V-40" target="QzDq8rynKPK1qvdBXW3V-42" edge="1">
          <mxGeometry relative="1" as="geometry" />
        </mxCell>
        <mxCell id="QzDq8rynKPK1qvdBXW3V-40" value="model:hybrid&#xa;Rough-Fuzzy&#xa;Classifier" style="shape=hexagon;perimeter=hexagonPerimeter2;fillColor=#b0e3e6;strokeColor=#0e8088;" parent="1" name="model" vertex="1">
          <mxGeometry x="1080" y="980" width="120" height="50" as="geometry" />
        </mxCell>
        <mxCell id="QzDq8rynKPK1qvdBXW3V-47" style="edgeStyle=orthogonalEdgeStyle;rounded=0;orthogonalLoop=1;jettySize=auto;html=1;exitX=0.5;exitY=0;exitDx=0;exitDy=0;entryX=0.5;entryY=1;entryDx=0;entryDy=0;" parent="1" source="QzDq8rynKPK1qvdBXW3V-42" target="QzDq8rynKPK1qvdBXW3V-46" edge="1">
          <mxGeometry relative="1" as="geometry" />
        </mxCell>
        <mxCell id="QzDq8rynKPK1qvdBXW3V-42" value="infer:predict" style="rounded=1;whiteSpace=wrap;html=1;arcSize=50;fillColor=#bac8d3;strokeColor=#23445d;" parent="1" name="infer:deduce" vertex="1">
          <mxGeometry x="1090" y="850" width="100" height="50" as="geometry" />
        </mxCell>
        <mxCell id="QzDq8rynKPK1qvdBXW3V-45" style="edgeStyle=orthogonalEdgeStyle;rounded=0;orthogonalLoop=1;jettySize=auto;html=1;exitX=0;exitY=0.5;exitDx=0;exitDy=0;entryX=1;entryY=0.5;entryDx=0;entryDy=0;" parent="1" source="QzDq8rynKPK1qvdBXW3V-44" target="QzDq8rynKPK1qvdBXW3V-42" edge="1">
          <mxGeometry relative="1" as="geometry" />
        </mxCell>
        <mxCell id="QzDq8rynKPK1qvdBXW3V-44" value="data&#xa;Patient Data" style="rectangle;fillColor=#fff2cc;strokeColor=#d6b656;" parent="1" name="data" vertex="1">
          <mxGeometry x="1270" y="850" width="100" height="50" as="geometry" />
        </mxCell>
        <mxCell id="QzDq8rynKPK1qvdBXW3V-46" value="symbol&#xa;Cancer Type" style="rectangle;fillColor=#dae8fc;strokeColor=#6c8ebf;" parent="1" name="symbol" vertex="1">
          <mxGeometry x="1090" y="720" width="100" height="50" as="geometry" />
        </mxCell>
      </root>
    </mxGraphModel>
  </diagram>
  <diagram name="Copy of Page-1" id="GAcsiQ3O6E8d-jxwSrGk">
    <mxGraphModel dx="1965" dy="1178" grid="1" gridSize="10" guides="1" tooltips="1" connect="1" arrows="1" fold="1" page="1" pageScale="1" pageWidth="3300" pageHeight="4681" math="0" shadow="0">
      <root>
        <mxCell id="lZMerHz-8ARIyKpBglap-0" />
        <mxCell id="lZMerHz-8ARIyKpBglap-1" parent="lZMerHz-8ARIyKpBglap-0" />
        <mxCell id="lZMerHz-8ARIyKpBglap-2" style="edgeStyle=orthogonalEdgeStyle;rounded=0;orthogonalLoop=1;jettySize=auto;html=1;exitX=1;exitY=0.5;exitDx=0;exitDy=0;entryX=0;entryY=0.5;entryDx=0;entryDy=0;" edge="1" parent="lZMerHz-8ARIyKpBglap-1" source="lZMerHz-8ARIyKpBglap-3" target="lZMerHz-8ARIyKpBglap-5">
          <mxGeometry relative="1" as="geometry" />
        </mxCell>
        <mxCell id="lZMerHz-8ARIyKpBglap-3" value="data&#xa;Raw Microarray&#xa;Gene Expression&#xa;Datasets" style="rectangle;fillColor=#fff2cc;strokeColor=#d6b656;" name="data" vertex="1" parent="lZMerHz-8ARIyKpBglap-1">
          <mxGeometry x="340" y="230" width="100" height="50" as="geometry" />
        </mxCell>
        <mxCell id="lZMerHz-8ARIyKpBglap-4" style="edgeStyle=orthogonalEdgeStyle;rounded=0;orthogonalLoop=1;jettySize=auto;html=1;exitX=1;exitY=0.5;exitDx=0;exitDy=0;entryX=0.5;entryY=0;entryDx=0;entryDy=0;" edge="1" parent="lZMerHz-8ARIyKpBglap-1" source="lZMerHz-8ARIyKpBglap-5" target="lZMerHz-8ARIyKpBglap-7">
          <mxGeometry relative="1" as="geometry" />
        </mxCell>
        <mxCell id="lZMerHz-8ARIyKpBglap-5" value="transform" style="rounded=1;whiteSpace=wrap;html=1;arcSize=50;fillColor=#f8cecc;strokeColor=#b85450;" name="transform" vertex="1" parent="lZMerHz-8ARIyKpBglap-1">
          <mxGeometry x="520" y="230" width="100" height="50" as="geometry" />
        </mxCell>
        <mxCell id="lZMerHz-8ARIyKpBglap-6" style="edgeStyle=orthogonalEdgeStyle;rounded=0;orthogonalLoop=1;jettySize=auto;html=1;exitX=0.5;exitY=1;exitDx=0;exitDy=0;entryX=0.5;entryY=0;entryDx=0;entryDy=0;" edge="1" parent="lZMerHz-8ARIyKpBglap-1" source="lZMerHz-8ARIyKpBglap-7" target="lZMerHz-8ARIyKpBglap-9">
          <mxGeometry relative="1" as="geometry" />
        </mxCell>
        <mxCell id="lZMerHz-8ARIyKpBglap-7" value="data&#xa;Cleaned and&#xa;Normalized" style="rectangle;fillColor=#fff2cc;strokeColor=#d6b656;" name="data" vertex="1" parent="lZMerHz-8ARIyKpBglap-1">
          <mxGeometry x="650" y="330" width="100" height="50" as="geometry" />
        </mxCell>
        <mxCell id="lZMerHz-8ARIyKpBglap-8" style="edgeStyle=orthogonalEdgeStyle;rounded=0;orthogonalLoop=1;jettySize=auto;html=1;exitX=0.5;exitY=1;exitDx=0;exitDy=0;entryX=0.5;entryY=0;entryDx=0;entryDy=0;" edge="1" parent="lZMerHz-8ARIyKpBglap-1" source="lZMerHz-8ARIyKpBglap-9" target="lZMerHz-8ARIyKpBglap-15">
          <mxGeometry relative="1" as="geometry" />
        </mxCell>
        <mxCell id="BlRlLX_Tl1VVQXvpcXoL-0" style="edgeStyle=orthogonalEdgeStyle;rounded=0;orthogonalLoop=1;jettySize=auto;html=1;exitX=0;exitY=0.5;exitDx=0;exitDy=0;entryX=1;entryY=0.5;entryDx=0;entryDy=0;" edge="1" parent="lZMerHz-8ARIyKpBglap-1" source="lZMerHz-8ARIyKpBglap-9" target="lZMerHz-8ARIyKpBglap-13">
          <mxGeometry relative="1" as="geometry" />
        </mxCell>
        <mxCell id="lZMerHz-8ARIyKpBglap-9" value="transform" style="rounded=1;whiteSpace=wrap;html=1;arcSize=50;fillColor=#f8cecc;strokeColor=#b85450;" name="transform" vertex="1" parent="lZMerHz-8ARIyKpBglap-1">
          <mxGeometry x="650" y="460" width="100" height="50" as="geometry" />
        </mxCell>
        <mxCell id="BlRlLX_Tl1VVQXvpcXoL-1" style="edgeStyle=orthogonalEdgeStyle;rounded=0;orthogonalLoop=1;jettySize=auto;html=1;exitX=0;exitY=0.5;exitDx=0;exitDy=0;entryX=1;entryY=0.5;entryDx=0;entryDy=0;" edge="1" parent="lZMerHz-8ARIyKpBglap-1" source="lZMerHz-8ARIyKpBglap-10" target="lZMerHz-8ARIyKpBglap-9">
          <mxGeometry relative="1" as="geometry" />
        </mxCell>
        <mxCell id="lZMerHz-8ARIyKpBglap-10" value="actor&#xa;Experts" style="triangle;fillColor=#ffe6cc;strokeColor=#d79b00;" name="actor" vertex="1" parent="lZMerHz-8ARIyKpBglap-1">
          <mxGeometry x="830" y="460" width="100" height="50" as="geometry" />
        </mxCell>
        <mxCell id="lZMerHz-8ARIyKpBglap-12" style="edgeStyle=orthogonalEdgeStyle;rounded=0;orthogonalLoop=1;jettySize=auto;html=1;exitX=0;exitY=0.5;exitDx=0;exitDy=0;entryX=0.5;entryY=0;entryDx=0;entryDy=0;" edge="1" parent="lZMerHz-8ARIyKpBglap-1" source="lZMerHz-8ARIyKpBglap-13" target="lZMerHz-8ARIyKpBglap-18">
          <mxGeometry relative="1" as="geometry" />
        </mxCell>
        <mxCell id="lZMerHz-8ARIyKpBglap-13" value="data&#xa;Labeled Data" style="rectangle;fillColor=#fff2cc;strokeColor=#d6b656;" name="data" vertex="1" parent="lZMerHz-8ARIyKpBglap-1">
          <mxGeometry x="470" y="460" width="100" height="50" as="geometry" />
        </mxCell>
        <mxCell id="lZMerHz-8ARIyKpBglap-14" style="edgeStyle=orthogonalEdgeStyle;rounded=0;orthogonalLoop=1;jettySize=auto;html=1;exitX=0.5;exitY=1;exitDx=0;exitDy=0;entryX=0.5;entryY=0;entryDx=0;entryDy=0;" edge="1" parent="lZMerHz-8ARIyKpBglap-1" source="lZMerHz-8ARIyKpBglap-15" target="lZMerHz-8ARIyKpBglap-21">
          <mxGeometry relative="1" as="geometry" />
        </mxCell>
        <mxCell id="lZMerHz-8ARIyKpBglap-15" value="data&#xa;Unlabeled Data" style="rectangle;fillColor=#fff2cc;strokeColor=#d6b656;" name="data" vertex="1" parent="lZMerHz-8ARIyKpBglap-1">
          <mxGeometry x="650" y="590" width="100" height="50" as="geometry" />
        </mxCell>
        <mxCell id="lZMerHz-8ARIyKpBglap-17" style="edgeStyle=orthogonalEdgeStyle;rounded=0;orthogonalLoop=1;jettySize=auto;html=1;exitX=0.5;exitY=1;exitDx=0;exitDy=0;entryX=0;entryY=0.5;entryDx=0;entryDy=0;" edge="1" parent="lZMerHz-8ARIyKpBglap-1" source="lZMerHz-8ARIyKpBglap-18" target="lZMerHz-8ARIyKpBglap-20">
          <mxGeometry relative="1" as="geometry" />
        </mxCell>
        <mxCell id="lZMerHz-8ARIyKpBglap-18" value="generate:train" style="rounded=1;whiteSpace=wrap;html=1;arcSize=50;fillColor=#e1d5e7;strokeColor=#9673a6;" name="generate:train" vertex="1" parent="lZMerHz-8ARIyKpBglap-1">
          <mxGeometry x="340" y="590" width="100" height="50" as="geometry" />
        </mxCell>
        <mxCell id="lZMerHz-8ARIyKpBglap-19" style="edgeStyle=orthogonalEdgeStyle;rounded=0;orthogonalLoop=1;jettySize=auto;html=1;exitX=1;exitY=0.5;exitDx=0;exitDy=0;entryX=0;entryY=0.5;entryDx=0;entryDy=0;" edge="1" parent="lZMerHz-8ARIyKpBglap-1" source="lZMerHz-8ARIyKpBglap-20" target="lZMerHz-8ARIyKpBglap-21">
          <mxGeometry relative="1" as="geometry" />
        </mxCell>
        <mxCell id="lZMerHz-8ARIyKpBglap-20" value="model:hybrid&#xa;Rough-Fuzzy&#xa;Classifier" style="shape=hexagon;perimeter=hexagonPerimeter2;fillColor=#b0e3e6;strokeColor=#0e8088;" name="model" vertex="1" parent="lZMerHz-8ARIyKpBglap-1">
          <mxGeometry x="460" y="720" width="120" height="50" as="geometry" />
        </mxCell>
        <mxCell id="BlRlLX_Tl1VVQXvpcXoL-2" style="edgeStyle=orthogonalEdgeStyle;rounded=0;orthogonalLoop=1;jettySize=auto;html=1;exitX=0.5;exitY=1;exitDx=0;exitDy=0;entryX=0.5;entryY=0;entryDx=0;entryDy=0;" edge="1" parent="lZMerHz-8ARIyKpBglap-1" source="lZMerHz-8ARIyKpBglap-21" target="lZMerHz-8ARIyKpBglap-23">
          <mxGeometry relative="1" as="geometry" />
        </mxCell>
        <mxCell id="lZMerHz-8ARIyKpBglap-21" value="infer:deduce" style="rounded=1;whiteSpace=wrap;html=1;arcSize=50;fillColor=#bac8d3;strokeColor=#23445d;" name="infer:deduce" vertex="1" parent="lZMerHz-8ARIyKpBglap-1">
          <mxGeometry x="650" y="720" width="100" height="50" as="geometry" />
        </mxCell>
        <mxCell id="lZMerHz-8ARIyKpBglap-22" style="edgeStyle=orthogonalEdgeStyle;rounded=0;orthogonalLoop=1;jettySize=auto;html=1;exitX=0.5;exitY=1;exitDx=0;exitDy=0;entryX=0.5;entryY=0;entryDx=0;entryDy=0;" edge="1" parent="lZMerHz-8ARIyKpBglap-1" source="lZMerHz-8ARIyKpBglap-23" target="lZMerHz-8ARIyKpBglap-26">
          <mxGeometry relative="1" as="geometry" />
        </mxCell>
        <mxCell id="lZMerHz-8ARIyKpBglap-23" value="data&#xa;Most Uncertain&#xa;Data" style="rectangle;fillColor=#fff2cc;strokeColor=#d6b656;" name="data" vertex="1" parent="lZMerHz-8ARIyKpBglap-1">
          <mxGeometry x="650" y="850" width="100" height="50" as="geometry" />
        </mxCell>
        <mxCell id="BlRlLX_Tl1VVQXvpcXoL-3" style="edgeStyle=orthogonalEdgeStyle;rounded=0;orthogonalLoop=1;jettySize=auto;html=1;exitX=1;exitY=0.5;exitDx=0;exitDy=0;entryX=0;entryY=0.5;entryDx=0;entryDy=0;" edge="1" parent="lZMerHz-8ARIyKpBglap-1" source="lZMerHz-8ARIyKpBglap-25" target="lZMerHz-8ARIyKpBglap-26">
          <mxGeometry relative="1" as="geometry" />
        </mxCell>
        <mxCell id="lZMerHz-8ARIyKpBglap-25" value="actor&#xa;Experts" style="triangle;fillColor=#ffe6cc;strokeColor=#d79b00;" name="actor" vertex="1" parent="lZMerHz-8ARIyKpBglap-1">
          <mxGeometry x="470" y="980" width="100" height="50" as="geometry" />
        </mxCell>
        <mxCell id="BlRlLX_Tl1VVQXvpcXoL-4" style="edgeStyle=orthogonalEdgeStyle;rounded=0;orthogonalLoop=1;jettySize=auto;html=1;exitX=0.5;exitY=1;exitDx=0;exitDy=0;entryX=0;entryY=0.5;entryDx=0;entryDy=0;" edge="1" parent="lZMerHz-8ARIyKpBglap-1" source="lZMerHz-8ARIyKpBglap-26" target="lZMerHz-8ARIyKpBglap-29">
          <mxGeometry relative="1" as="geometry" />
        </mxCell>
        <mxCell id="lZMerHz-8ARIyKpBglap-26" value="infer:deduce" style="rounded=1;whiteSpace=wrap;html=1;arcSize=50;fillColor=#bac8d3;strokeColor=#23445d;" name="infer:deduce" vertex="1" parent="lZMerHz-8ARIyKpBglap-1">
          <mxGeometry x="650" y="980" width="100" height="50" as="geometry" />
        </mxCell>
        <mxCell id="lZMerHz-8ARIyKpBglap-28" style="edgeStyle=orthogonalEdgeStyle;rounded=0;orthogonalLoop=1;jettySize=auto;html=1;exitX=1;exitY=0.5;exitDx=0;exitDy=0;entryX=0;entryY=0.5;entryDx=0;entryDy=0;" edge="1" parent="lZMerHz-8ARIyKpBglap-1" source="lZMerHz-8ARIyKpBglap-29" target="lZMerHz-8ARIyKpBglap-32">
          <mxGeometry relative="1" as="geometry" />
        </mxCell>
        <mxCell id="lZMerHz-8ARIyKpBglap-29" value="data&#xa;Labeled Data" style="rectangle;fillColor=#fff2cc;strokeColor=#d6b656;" name="data" vertex="1" parent="lZMerHz-8ARIyKpBglap-1">
          <mxGeometry x="780" y="1080" width="100" height="50" as="geometry" />
        </mxCell>
        <mxCell id="lZMerHz-8ARIyKpBglap-31" style="edgeStyle=orthogonalEdgeStyle;rounded=0;orthogonalLoop=1;jettySize=auto;html=1;exitX=1;exitY=0.5;exitDx=0;exitDy=0;entryX=0.5;entryY=1;entryDx=0;entryDy=0;" edge="1" parent="lZMerHz-8ARIyKpBglap-1" source="lZMerHz-8ARIyKpBglap-32" target="lZMerHz-8ARIyKpBglap-34">
          <mxGeometry relative="1" as="geometry" />
        </mxCell>
        <mxCell id="lZMerHz-8ARIyKpBglap-32" value="generate:train" style="rounded=1;whiteSpace=wrap;html=1;arcSize=50;fillColor=#e1d5e7;strokeColor=#9673a6;" name="generate:train" vertex="1" parent="lZMerHz-8ARIyKpBglap-1">
          <mxGeometry x="960" y="1080" width="100" height="50" as="geometry" />
        </mxCell>
        <mxCell id="lZMerHz-8ARIyKpBglap-33" style="edgeStyle=orthogonalEdgeStyle;rounded=0;orthogonalLoop=1;jettySize=auto;html=1;exitX=0.5;exitY=0;exitDx=0;exitDy=0;entryX=0.5;entryY=1;entryDx=0;entryDy=0;" edge="1" parent="lZMerHz-8ARIyKpBglap-1" source="lZMerHz-8ARIyKpBglap-34" target="lZMerHz-8ARIyKpBglap-36">
          <mxGeometry relative="1" as="geometry" />
        </mxCell>
        <mxCell id="lZMerHz-8ARIyKpBglap-34" value="model:hybrid&#xa;Rough-Fuzzy&#xa;Classifier" style="shape=hexagon;perimeter=hexagonPerimeter2;fillColor=#b0e3e6;strokeColor=#0e8088;" name="model" vertex="1" parent="lZMerHz-8ARIyKpBglap-1">
          <mxGeometry x="1080" y="980" width="120" height="50" as="geometry" />
        </mxCell>
        <mxCell id="lZMerHz-8ARIyKpBglap-35" style="edgeStyle=orthogonalEdgeStyle;rounded=0;orthogonalLoop=1;jettySize=auto;html=1;exitX=0.5;exitY=0;exitDx=0;exitDy=0;entryX=0.5;entryY=1;entryDx=0;entryDy=0;" edge="1" parent="lZMerHz-8ARIyKpBglap-1" source="lZMerHz-8ARIyKpBglap-36" target="lZMerHz-8ARIyKpBglap-39">
          <mxGeometry relative="1" as="geometry" />
        </mxCell>
        <mxCell id="lZMerHz-8ARIyKpBglap-36" value="infer:predict" style="rounded=1;whiteSpace=wrap;html=1;arcSize=50;fillColor=#bac8d3;strokeColor=#23445d;" name="infer:deduce" vertex="1" parent="lZMerHz-8ARIyKpBglap-1">
          <mxGeometry x="1090" y="850" width="100" height="50" as="geometry" />
        </mxCell>
        <mxCell id="lZMerHz-8ARIyKpBglap-37" style="edgeStyle=orthogonalEdgeStyle;rounded=0;orthogonalLoop=1;jettySize=auto;html=1;exitX=0;exitY=0.5;exitDx=0;exitDy=0;entryX=1;entryY=0.5;entryDx=0;entryDy=0;" edge="1" parent="lZMerHz-8ARIyKpBglap-1" source="lZMerHz-8ARIyKpBglap-38" target="lZMerHz-8ARIyKpBglap-36">
          <mxGeometry relative="1" as="geometry" />
        </mxCell>
        <mxCell id="lZMerHz-8ARIyKpBglap-38" value="data&#xa;Patient Data" style="rectangle;fillColor=#fff2cc;strokeColor=#d6b656;" name="data" vertex="1" parent="lZMerHz-8ARIyKpBglap-1">
          <mxGeometry x="1270" y="850" width="100" height="50" as="geometry" />
        </mxCell>
        <mxCell id="lZMerHz-8ARIyKpBglap-39" value="symbol&#xa;Cancer Type" style="rectangle;fillColor=#dae8fc;strokeColor=#6c8ebf;" name="symbol" vertex="1" parent="lZMerHz-8ARIyKpBglap-1">
          <mxGeometry x="1090" y="720" width="100" height="50" as="geometry" />
        </mxCell>
      </root>
    </mxGraphModel>
  </diagram>
</mxfile>
